<mxfile host="drawio-plugin" modified="2021-05-09T20:56:35.187Z" agent="5.0 (Windows NT 6.2; Win64; x64) AppleWebKit/537.36 (KHTML, like Gecko) Chrome/87.0.4280.141 Safari/537.36" version="13.7.9" etag="0TwTDnx8cD1ZVHWEDqrF" type="embed"><diagram id="x5Ct8pu1ZVd3vidvK7fK" name="Page-1"><mxGraphModel dx="520" dy="210" grid="1" gridSize="10" guides="1" tooltips="1" connect="1" arrows="1" fold="1" page="1" pageScale="1" pageWidth="850" pageHeight="1100" math="0" shadow="0"><root><mxCell id="0"/><mxCell id="1" parent="0"/><mxCell id="7" value="" style="edgeStyle=orthogonalEdgeStyle;rounded=0;orthogonalLoop=1;jettySize=auto;html=1;" edge="1" parent="1" source="5" target="6"><mxGeometry relative="1" as="geometry"/></mxCell><mxCell id="5" value="get file for watermarking" style="rounded=0;whiteSpace=wrap;html=1;" vertex="1" parent="1"><mxGeometry x="280" y="120" width="120" height="40" as="geometry"/></mxCell><mxCell id="9" value="Yes" style="edgeStyle=orthogonalEdgeStyle;rounded=0;orthogonalLoop=1;jettySize=auto;html=1;" edge="1" parent="1" source="6" target="8"><mxGeometry relative="1" as="geometry"/></mxCell><mxCell id="13" value="No" style="edgeStyle=orthogonalEdgeStyle;rounded=0;orthogonalLoop=1;jettySize=auto;html=1;" edge="1" parent="1" source="6" target="12"><mxGeometry relative="1" as="geometry"/></mxCell><mxCell id="6" value="is it a image?" style="rhombus;whiteSpace=wrap;html=1;rounded=0;" vertex="1" parent="1"><mxGeometry x="280" y="180" width="120" height="60" as="geometry"/></mxCell><mxCell id="11" value="" style="edgeStyle=orthogonalEdgeStyle;rounded=0;orthogonalLoop=1;jettySize=auto;html=1;" edge="1" parent="1" source="8" target="10"><mxGeometry relative="1" as="geometry"/></mxCell><mxCell id="8" value="get watermark text" style="whiteSpace=wrap;html=1;rounded=0;" vertex="1" parent="1"><mxGeometry x="280" y="280" width="120" height="20" as="geometry"/></mxCell><mxCell id="16" value="" style="edgeStyle=orthogonalEdgeStyle;rounded=0;orthogonalLoop=1;jettySize=auto;html=1;" edge="1" parent="1" source="10" target="15"><mxGeometry relative="1" as="geometry"/></mxCell><mxCell id="10" value="get watermark size" style="whiteSpace=wrap;html=1;rounded=0;" vertex="1" parent="1"><mxGeometry x="280" y="320" width="120" height="20" as="geometry"/></mxCell><mxCell id="14" style="edgeStyle=orthogonalEdgeStyle;rounded=0;orthogonalLoop=1;jettySize=auto;html=1;entryX=1;entryY=0.5;entryDx=0;entryDy=0;exitX=0.5;exitY=0;exitDx=0;exitDy=0;" edge="1" parent="1" source="12" target="5"><mxGeometry relative="1" as="geometry"/></mxCell><mxCell id="12" value="show error" style="whiteSpace=wrap;html=1;rounded=0;" vertex="1" parent="1"><mxGeometry x="480" y="200" width="120" height="20" as="geometry"/></mxCell><mxCell id="18" value="" style="edgeStyle=orthogonalEdgeStyle;rounded=0;orthogonalLoop=1;jettySize=auto;html=1;" edge="1" parent="1" source="15" target="17"><mxGeometry relative="1" as="geometry"/></mxCell><mxCell id="15" value="add watermark" style="whiteSpace=wrap;html=1;rounded=0;" vertex="1" parent="1"><mxGeometry x="280" y="360" width="120" height="20" as="geometry"/></mxCell><mxCell id="19" style="edgeStyle=orthogonalEdgeStyle;rounded=0;orthogonalLoop=1;jettySize=auto;html=1;entryX=0;entryY=0.5;entryDx=0;entryDy=0;exitX=0;exitY=0.5;exitDx=0;exitDy=0;" edge="1" parent="1" source="17" target="5"><mxGeometry relative="1" as="geometry"/></mxCell><mxCell id="17" value="save image to file" style="whiteSpace=wrap;html=1;rounded=0;" vertex="1" parent="1"><mxGeometry x="280" y="400" width="120" height="20" as="geometry"/></mxCell></root></mxGraphModel></diagram></mxfile>